<svg width="87" height="62" viewBox="0 0 87 62" fill="none" xmlns="http://www.w3.org/2000/svg">
<g filter="url(#filter0_ii_2_49)">
<path d="M0.799988 8.77251C0.799988 4.29578 4.44993 0.666687 8.95237 0.666687H78.2476C82.75 0.666687 86.4 4.29579 86.4 8.77251V53.6188C86.4 58.0956 82.75 61.7247 78.2476 61.7247H8.95237C4.44993 61.7247 0.799988 58.0956 0.799988 53.6188V8.77251Z" fill="#CDC9C1"/>
<path d="M0.799988 8.77251C0.799988 4.29578 4.44993 0.666687 8.95237 0.666687H78.2476C82.75 0.666687 86.4 4.29579 86.4 8.77251V53.6188C86.4 58.0956 82.75 61.7247 78.2476 61.7247H8.95237C4.44993 61.7247 0.799988 58.0956 0.799988 53.6188V8.77251Z" fill="url(#paint0_radial_2_49)" fill-opacity="0.1"/>
<path d="M0.799988 8.77251C0.799988 4.29578 4.44993 0.666687 8.95237 0.666687H78.2476C82.75 0.666687 86.4 4.29579 86.4 8.77251V53.6188C86.4 58.0956 82.75 61.7247 78.2476 61.7247H8.95237C4.44993 61.7247 0.799988 58.0956 0.799988 53.6188V8.77251Z" fill="url(#paint1_radial_2_49)" fill-opacity="0.1"/>
<path d="M0.799988 8.77251C0.799988 4.29578 4.44993 0.666687 8.95237 0.666687H78.2476C82.75 0.666687 86.4 4.29579 86.4 8.77251V53.6188C86.4 58.0956 82.75 61.7247 78.2476 61.7247H8.95237C4.44993 61.7247 0.799988 58.0956 0.799988 53.6188V8.77251Z" fill="url(#paint2_radial_2_49)" fill-opacity="0.1"/>
</g>
<mask id="mask0_2_49" style="mask-type:alpha" maskUnits="userSpaceOnUse" x="0" y="0" width="87" height="62">
<path d="M0.799988 8.77251C0.799988 4.29578 4.44993 0.666687 8.95237 0.666687H78.2476C82.75 0.666687 86.4 4.29579 86.4 8.77251V53.6188C86.4 58.0956 82.75 61.7247 78.2476 61.7247H8.95237C4.44993 61.7247 0.799988 58.0956 0.799988 53.6188V8.77251Z" fill="#D9D9D9"/>
</mask>
<g mask="url(#mask0_2_49)">
<path fill-rule="evenodd" clip-rule="evenodd" d="M0.290466 8.24389C0.290466 6.84491 1.43107 5.71082 2.83809 5.71082H22.9532C24.3602 5.71082 25.5008 6.84491 25.5008 8.24388V20.8431C25.5008 22.2421 24.3602 23.3762 22.9532 23.3762H2.83809C1.43107 23.3762 0.290466 22.2421 0.290466 20.8431V8.24389ZM2.83809 6.72404C1.99388 6.72404 1.30951 7.4045 1.30951 8.24389V20.8431C1.30951 21.6825 1.99388 22.363 2.83809 22.363H22.9532C23.7974 22.363 24.4818 21.6825 24.4818 20.8431V8.24388C24.4818 7.4045 23.7974 6.72404 22.9532 6.72404H2.83809Z" fill="#10141E"/>
<path fill-rule="evenodd" clip-rule="evenodd" d="M0.290466 24.8958C0.290466 23.4968 1.43107 22.3627 2.83809 22.3627H22.9532C24.3602 22.3627 25.5008 23.4968 25.5008 24.8958V37.4951C25.5008 38.894 24.3602 40.0281 22.9532 40.0281H2.83809C1.43107 40.0281 0.290466 38.894 0.290466 37.4951V24.8958ZM2.83809 23.376C1.99388 23.376 1.30951 24.0564 1.30951 24.8958V37.4951C1.30951 38.3345 1.99388 39.0149 2.83809 39.0149H22.9532C23.7974 39.0149 24.4818 38.3344 24.4818 37.4951V24.8958C24.4818 24.0564 23.7974 23.376 22.9532 23.376H2.83809Z" fill="#10141E"/>
<path fill-rule="evenodd" clip-rule="evenodd" d="M30.0644 23.0456C30.0644 21.6466 31.205 20.5125 32.612 20.5125H60.1706C61.5776 20.5125 62.7182 21.6466 62.7182 23.0456V23.6182C62.7182 25.0172 61.5776 26.1513 60.1706 26.1513H58.6642C57.8199 26.1513 57.1356 26.8318 57.1356 27.6712V41.1955C57.1356 42.5945 55.995 43.7286 54.588 43.7286H27.0294C25.6224 43.7286 24.4818 42.5945 24.4818 41.1955V39.6977C24.4818 38.2988 25.6224 37.1647 27.0294 37.1647H28.5358C29.38 37.1647 30.0644 36.4842 30.0644 35.6448V23.0456ZM32.612 21.5257C31.7678 21.5257 31.0834 22.2062 31.0834 23.0456V35.6448C31.0834 37.0438 29.9428 38.1779 28.5358 38.1779H27.0294C26.1852 38.1779 25.5008 38.8583 25.5008 39.6977V41.1955C25.5008 42.0349 26.1852 42.7154 27.0294 42.7154H54.588C55.4322 42.7154 56.1165 42.0349 56.1165 41.1955V27.6712C56.1165 26.2722 57.2571 25.1381 58.6642 25.1381H60.1706C61.0148 25.1381 61.6991 24.4576 61.6991 23.6182V23.0456C61.6991 22.2062 61.0148 21.5257 60.1706 21.5257H32.612Z" fill="#10141E"/>
<path fill-rule="evenodd" clip-rule="evenodd" d="M0.290466 41.548C0.290466 40.149 1.43107 39.0149 2.83809 39.0149H22.9532C24.3602 39.0149 25.5008 40.149 25.5008 41.548V54.1472C25.5008 55.5462 24.3602 56.6803 22.9532 56.6803H2.83809C1.43107 56.6803 0.290466 55.5462 0.290466 54.1472V41.548ZM2.83809 40.0281C1.99388 40.0281 1.30951 40.7086 1.30951 41.548V54.1472C1.30951 54.9866 1.99388 55.6671 2.83809 55.6671H22.9532C23.7974 55.6671 24.4818 54.9866 24.4818 54.1472V41.548C24.4818 40.7086 23.7974 40.0281 22.9532 40.0281H2.83809Z" fill="#10141E"/>
<path fill-rule="evenodd" clip-rule="evenodd" d="M61.6992 8.24361C61.6992 6.84464 62.8398 5.71054 64.2468 5.71054H84.3619C85.7689 5.71054 86.9095 6.84463 86.9095 8.24361V20.8429C86.9095 22.2418 85.7689 23.3759 84.3619 23.3759H64.2468C62.8398 23.3759 61.6992 22.2418 61.6992 20.8429V8.24361ZM64.2468 6.72377C63.4026 6.72377 62.7182 7.40423 62.7182 8.24361V20.8429C62.7182 21.6823 63.4026 22.3627 64.2468 22.3627H84.3619C85.2061 22.3627 85.8905 21.6823 85.8905 20.8429V8.24361C85.8905 7.40422 85.2061 6.72377 84.3619 6.72377H64.2468Z" fill="#10141E"/>
<path fill-rule="evenodd" clip-rule="evenodd" d="M61.6992 24.8958C61.6992 23.4968 62.8398 22.3627 64.2468 22.3627H84.3619C85.7689 22.3627 86.9095 23.4968 86.9095 24.8958V37.4951C86.9095 38.894 85.7689 40.0281 84.3619 40.0281H64.2468C62.8398 40.0281 61.6992 38.894 61.6992 37.4951V24.8958ZM64.2468 23.376C63.4026 23.376 62.7182 24.0564 62.7182 24.8958V37.4951C62.7182 38.3345 63.4026 39.0149 64.2468 39.0149H84.3619C85.2061 39.0149 85.8905 38.3344 85.8905 37.4951V24.8958C85.8905 24.0564 85.2061 23.376 84.3619 23.376H64.2468Z" fill="#10141E"/>
<path fill-rule="evenodd" clip-rule="evenodd" d="M61.6992 41.548C61.6992 40.149 62.8398 39.0149 64.2468 39.0149H84.3619C85.7689 39.0149 86.9095 40.149 86.9095 41.548V54.1472C86.9095 55.5462 85.7689 56.6803 84.3619 56.6803H64.2468C62.8398 56.6803 61.6992 55.5462 61.6992 54.1472V41.548ZM64.2468 40.0281C63.4026 40.0281 62.7182 40.7086 62.7182 41.548V54.1472C62.7182 54.9866 63.4026 55.6671 64.2468 55.6671H84.3619C85.2061 55.6671 85.8905 54.9866 85.8905 54.1472V41.548C85.8905 40.7086 85.2061 40.0281 84.3619 40.0281H64.2468Z" fill="#10141E"/>
</g>
<defs>
<filter id="filter0_ii_2_49" x="0.799988" y="0.666687" width="85.6" height="61.058" filterUnits="userSpaceOnUse" color-interpolation-filters="sRGB">
<feFlood flood-opacity="0" result="BackgroundImageFix"/>
<feBlend mode="normal" in="SourceGraphic" in2="BackgroundImageFix" result="shape"/>
<feColorMatrix in="SourceAlpha" type="matrix" values="0 0 0 0 0 0 0 0 0 0 0 0 0 0 0 0 0 0 127 0" result="hardAlpha"/>
<feOffset dx="-1" dy="-1"/>
<feComposite in2="hardAlpha" operator="arithmetic" k2="-1" k3="1"/>
<feColorMatrix type="matrix" values="0 0 0 0 0.184314 0 0 0 0 0.152941 0 0 0 0 0.0941176 0 0 0 0.2 0"/>
<feBlend mode="normal" in2="shape" result="effect1_innerShadow_2_49"/>
<feColorMatrix in="SourceAlpha" type="matrix" values="0 0 0 0 0 0 0 0 0 0 0 0 0 0 0 0 0 0 127 0" result="hardAlpha"/>
<feOffset dx="1" dy="1"/>
<feComposite in2="hardAlpha" operator="arithmetic" k2="-1" k3="1"/>
<feColorMatrix type="matrix" values="0 0 0 0 0.184314 0 0 0 0 0.152941 0 0 0 0 0.0941176 0 0 0 0.2 0"/>
<feBlend mode="normal" in2="effect1_innerShadow_2_49" result="effect2_innerShadow_2_49"/>
</filter>
<radialGradient id="paint0_radial_2_49" cx="0" cy="0" r="1" gradientUnits="userSpaceOnUse" gradientTransform="translate(22.2 0.666686) rotate(70.6851) scale(64.6996 90.5923)">
<stop stop-color="#C29632"/>
<stop offset="1" stop-color="#C29632" stop-opacity="0"/>
</radialGradient>
<radialGradient id="paint1_radial_2_49" cx="0" cy="0" r="1" gradientUnits="userSpaceOnUse" gradientTransform="translate(86.4 32.1208) rotate(145.329) scale(52.0406 72.3961)">
<stop stop-color="#664700"/>
<stop offset="1" stop-color="#664700"/>
</radialGradient>
<radialGradient id="paint2_radial_2_49" cx="0" cy="0" r="1" gradientUnits="userSpaceOnUse" gradientTransform="translate(11.9652 61.7247) rotate(-21.6885) scale(80.1057 111.199)">
<stop stop-color="#402200"/>
<stop offset="1" stop-color="#402200" stop-opacity="0"/>
</radialGradient>
</defs>
</svg>
