<svg width="130" height="78" viewBox="0 0 130 78" fill="none" xmlns="http://www.w3.org/2000/svg">
<path fill-rule="evenodd" clip-rule="evenodd" d="M90.2587 77.1869C111.765 77.1869 129.2 60.0944 129.2 39.0097C129.2 17.9251 111.765 0.832611 90.2587 0.832611C80.6202 0.832611 71.7995 4.26576 64.9996 9.95278C58.1997 4.2659 49.3792 0.832857 39.7408 0.832857C18.2343 0.832857 0.799927 17.9253 0.799927 39.01C0.799927 60.0946 18.2343 77.1871 39.7408 77.1871C49.3793 77.1871 58.2 73.754 64.9999 68.0669C71.7998 73.7538 80.6203 77.1869 90.2587 77.1869Z" fill="#ED0006"/>
<path fill-rule="evenodd" clip-rule="evenodd" d="M64.9999 68.0662C73.3723 61.0638 78.6812 50.6445 78.6812 39.0096C78.6812 27.3746 73.3723 16.9554 64.9999 9.95297C71.7998 4.26574 80.6207 0.832458 90.2594 0.832458C111.766 0.832458 129.2 17.9249 129.2 39.0096C129.2 60.0942 111.766 77.1867 90.2594 77.1867C80.6207 77.1867 71.7998 73.7534 64.9999 68.0662Z" fill="#F9A000"/>
<path fill-rule="evenodd" clip-rule="evenodd" d="M65.0003 68.0649C73.3728 61.0625 78.6817 50.6432 78.6817 39.0083C78.6817 27.3733 73.3728 16.954 65.0003 9.95166C56.6279 16.954 51.319 27.3733 51.319 39.0083C51.319 50.6432 56.6279 61.0625 65.0003 68.0649Z" fill="#FF5E00"/>
</svg>
