<svg width="44" height="54" viewBox="0 0 44 54" fill="none" xmlns="http://www.w3.org/2000/svg">
<g clip-path="url(#clip0_2_38)">
<path fill-rule="evenodd" clip-rule="evenodd" d="M31.5262 1.10446C32.7891 0.401783 34.3858 0.850105 35.0925 2.10582C39.3379 9.64909 41.5699 18.1998 41.5699 26.8995C41.5699 35.5991 39.3379 44.1499 35.0925 51.6931C34.3858 52.9489 32.7891 53.3972 31.5262 52.6945C30.2632 51.9918 29.8124 50.4042 30.5191 49.1485C34.3233 42.389 36.3291 34.7153 36.3291 26.8995C36.3291 19.0837 34.3233 11.41 30.5191 4.65044C29.8124 3.39473 30.2632 1.80714 31.5262 1.10446ZM21.4376 6.27916C22.7005 5.57648 24.2972 6.0248 25.0039 7.28051C28.3638 13.2505 30.1297 20.0165 30.1297 26.8995C30.1297 33.7824 28.3638 40.5485 25.0039 46.5184C24.2972 47.7742 22.7005 48.2225 21.4376 47.5198C20.1747 46.8171 19.7238 45.2295 20.4305 43.9738C23.3493 38.7876 24.8889 32.8986 24.8889 26.8995C24.8889 20.9004 23.3493 15.0113 20.4305 9.82514C19.7238 8.56942 20.1747 6.98184 21.4376 6.27916ZM11.8179 11.0248C13.084 10.3278 14.6786 10.7832 15.3797 12.0421C17.867 16.5087 19.1727 21.5676 19.1727 26.7113C19.1727 31.855 17.8671 36.9139 15.3797 41.3806C14.6786 42.6394 13.084 43.0949 11.8179 42.3978C10.5518 41.7008 10.0937 40.1153 10.7948 38.8564C12.8474 35.1705 13.9319 30.9814 13.9319 26.7113C13.9319 22.4412 12.8474 18.2521 10.7948 14.5662C10.0937 13.3074 10.5518 11.7218 11.8179 11.0248ZM2.04403 16.2377C3.26274 15.4617 4.88341 15.8149 5.6639 17.0267C7.56788 19.9827 8.5809 23.4036 8.5809 26.8995C8.5809 30.3954 7.56788 33.8162 5.6639 36.7723C4.88341 37.984 3.26274 38.3373 2.04403 37.5612C0.825313 36.7852 0.470056 35.1738 1.25054 33.962C2.61848 31.8382 3.34009 29.3914 3.34009 26.8995C3.34009 24.4075 2.61848 21.9607 1.25054 19.8369C0.470056 18.6252 0.825313 17.0137 2.04403 16.2377Z" fill="#475569"/>
</g>
<defs>
<clipPath id="clip0_2_38">
<rect width="42.8" height="52.6878" fill="white" transform="translate(0.400024 0.555542)"/>
</clipPath>
</defs>
</svg>
