<?xml version="1.0" encoding="iso-8859-1"?>
<!-- Uploaded to: SVG Repo, www.svgrepo.com, Generator: SVG Repo Mixer Tools -->
<!DOCTYPE svg PUBLIC "-//W3C//DTD SVG 1.1//EN" "http://www.w3.org/Graphics/SVG/1.1/DTD/svg11.dtd">
<svg fill="#000000" height="800px" width="800px" version="1.1" id="Capa_1" xmlns="http://www.w3.org/2000/svg" xmlns:xlink="http://www.w3.org/1999/xlink" 
	 viewBox="0 0 454.478 454.478" xml:space="preserve">
<g>
	<path d="M307.186,56.952V41.273h3.936c4.142,0,7.5-3.358,7.5-7.5V7.5c0-4.142-3.358-7.5-7.5-7.5H143.356
		c-4.142,0-7.5,3.358-7.5,7.5v26.273c0,4.142,3.358,7.5,7.5,7.5h3.932v15.68c-36.152,6.446-63.692,38.089-63.692,76.066v283.024
		c0,21.193,17.242,38.435,38.435,38.435h210.416c21.193,0,38.435-17.242,38.435-38.435V133.019
		C370.882,95.041,343.34,63.396,307.186,56.952z M150.856,15h152.765v11.273H150.856V15z M292.186,41.273v14.458H162.289V41.273
		H292.186z M355.882,416.043c0,12.922-10.513,23.435-23.435,23.435H122.031c-12.922,0-23.435-10.513-23.435-23.435V133.019
		c0-34.346,27.942-62.288,62.288-62.288h132.709c34.346,0,62.288,27.942,62.288,62.288V416.043z"/>
	<path d="M324.995,89.169H147.482c-4.142,0-7.5,3.358-7.5,7.5v316.87c0,4.142,3.358,7.5,7.5,7.5h177.513c4.142,0,7.5-3.358,7.5-7.5
		V96.669C332.495,92.527,329.137,89.169,324.995,89.169z M273.736,371.603c-17.494,3.119-31.318,16.943-34.439,34.437h-49.879
		c-3.121-17.493-16.943-31.315-34.436-34.436V138.608c17.494-3.121,31.317-16.945,34.436-34.438h49.878
		c3.12,17.495,16.945,31.319,34.44,34.439V371.603z M273.736,386.972v19.068h-19.07
		C257.269,396.835,264.531,389.573,273.736,386.972z M273.736,123.24c-9.206-2.601-16.469-9.864-19.071-19.07h19.071V123.24z
		 M174.049,104.169c-2.601,9.205-9.863,16.467-19.067,19.069v-19.069H174.049z M154.982,386.973
		c9.203,2.602,16.465,9.863,19.067,19.067h-19.067V386.973z M288.736,104.169h6.299v301.87h-6.299V104.169z M317.495,406.04h-7.46
		v-301.87h7.46V406.04z"/>
	<path d="M163.361,255.104c0,22.331,22.877,40.498,50.998,40.498c28.12,0,50.998-18.167,50.998-40.498
		c0-22.331-22.877-40.499-50.998-40.499C186.239,214.606,163.361,232.773,163.361,255.104z M250.357,255.104
		c0,14.06-16.148,25.498-35.998,25.498c-19.85,0-35.998-11.438-35.998-25.498c0-14.06,16.148-25.499,35.998-25.499
		C234.208,229.606,250.357,241.044,250.357,255.104z"/>
</g>
</svg>